<?xml version="1.0" encoding="utf-8"?>
<!-- Generator: Adobe Illustrator 18.1.1, SVG Export Plug-In . SVG Version: 6.00 Build 0)  -->
<svg version="1.1" id="Layer_1" xmlns="http://www.w3.org/2000/svg" xmlns:xlink="http://www.w3.org/1999/xlink" x="0px" y="0px"
	 width="1000px" height="273px" viewBox="250 114 1000 273" enable-background="new 250 114 1000 273" xml:space="preserve">
<path fill="#FFFFFF" d="M415.6,165.5c5.9,0,10.7-0.8,15-1.8c1.9-7,7.3-15.6,7.3-22.3c0-5.7-4-9.9-12.9-9.9
	c-13.9,0-24.9,11.2-24.9,22.7C400.1,161.1,405.4,165.5,415.6,165.5z"/>
<path fill="#FFFFFF" d="M890.4,165.5c5.9,0,10.7-0.8,15-1.8c1.9-7,7.3-15.6,7.3-22.3c0-5.7-4-9.9-12.9-9.9
	c-13.9,0-24.9,11.2-24.9,22.7C874.9,161.1,880.2,165.5,890.4,165.5z"/>
<path fill="#FFFFFF" d="M727.2,260.8l8.2-32.2l0,0c2-7.9,3.6-14,4.3-17l0.3-1.3c0.5-1.6,0.6-3.2,0.6-4.6c0-9.7-9.7-12.4-17.1-12.4
	c-5.9,0-12,1.3-16,3.4c-8.3,27.3-27.3,44-42.8,44c-12.8,0-20.7-9.1-20.7-25.9c0-48,40.4-87.3,62.4-87.3c6.4,0,9.3,3.2,9.3,10.2
	c0,9.1-4.6,16.8-4.6,21.2c0,3.8,4.3,7.2,10.1,7.2c11.2,0,28.1-14.4,28.1-30.8c0-12.2-8.3-21.3-30.1-21.3
	c-53.6,0-110.3,48-110.3,103.1c0,25.5,14.5,41.7,42.1,41.7c23.3,0,42-14,52-32.9l1.1,0.1c0,0-9,33.3-14,57
	c-15.5-4.6-60.1-16.7-111.7-20.6l8.2-29.5c8.5-30.6,12.9-43.7,14.4-49.3l0.5-1.9c1.8-6.9,0-9.7-11.3-9.7c-13.7,0-17.2,3.8-20.6,16.1
	l-1.1,4c-9.3,33-19.6,46.6-29,46.6c-4.6,0-6.5-2.6-6.5-6.9c0-14.4,13.4-44.5,13.4-51.7c0-4.5-4.1-6.5-11.8-6.5
	c-11.3,0-17.2,2.2-20.1,14.8c-3.1,13.7-5.7,22.6-7.6,29.2c-8.8,14.8-24.1,27.5-34.5,27.5c-2.9,0-4.3-1.6-4.3-4.6
	c0-2.6,0.6-5.9,2.1-11L482,187c2.7,0.2,5.4,0.2,8.3,0.2c4.9,0,8.6-1.9,8.6-8c0-1.8-0.2-3.7-0.8-5.9c-4,0.6-8.1,1-12.6,1.1l4.8-16.9
	c0.5-1.9,1-3.5,1-4.9c0-3.8-2.4-6.1-9.4-6.1c-12.6,0-17.6,3.8-20.3,13.7l-3.8,14.2H454c-5.4,0-7.8,2.6-7.8,7.2
	c0,1.1,0.2,2.4,0.5,3.8c2.7,0,5.3,0,7.8,0.2l-8.8,32.4c-8.8,16.5-24,33.2-33,33.2c-2.9,0-4.3-1.6-4.3-4.6
	c0-19.6,16.6-56.5,16.6-66.2c0-5.7-6.1-6.9-12-6.9c-14.7,0-17.9,4.5-20.4,13.9l-1,3.5c-3.3,12.1-6,21.5-8.2,29
	c-12.8,18.4-37.2,30.8-59.2,30.8c-25.4,0-39.3-13.9-39.3-38c0-37,33.8-76,56.7-76c7.8,0,11.8,4.5,11.8,12c0,5.6-2.1,12.4-5.7,19.3
	l-1.4,2.7c-2.2,4.3-3.8,6.5-3.8,8.9c0,4.1,4.8,7.3,8.6,7.3c5.4,0,12.4-3.4,19.2-10.7l1.6-1.8c6.7-7.3,12.8-18.4,12.8-29.8
	c0-14.7-9.3-24.7-29.7-24.7c-42.9,0-105,45.8-105,100.7c0,34.6,22.7,51.1,60,51.1c28.3,0,51.4-12.7,67-28.7
	c-0.8,3.7-1.1,6.6-1.1,9.6c0,9.4,7.7,15,20.1,15c18.2,0,32.7-10.3,43.3-23.1c0,0.6-0.1,1.2-0.1,1.8c0,10.4,7.2,14.5,19.6,14.5
	c17,0,32.6-10.2,43.8-22.7c0.6,11.6,10.5,17.1,22.5,17.1c17.2,0,32.7-10.9,42.1-38l1.3,0.5l-15,43.3c-46.6,0.5-70.5,23.1-70.5,42.4
	c0,14.4,10.2,25.1,31.1,25.1c23.9,0,46.3-14.4,59.7-50.9l1.3-4.3v-0.1c62.4,10.4,91.3,20.4,111.4,27c-5.2,25.5-13.4,62.1,10.8,79.1
	c20.4,14.3,49.9,6.5,60.8-10.9c13.1-20.8,5.7-48.5-39.6-74.2 M522.1,314.3c-5.7,0-10.1-4.1-10.1-11.8c0-15.2,16.5-30,37.7-30.3
	C539.9,307.9,531,314.3,522.1,314.3z M739.5,352.6c-4.1,7.5-13.4,9.5-20.4,6.2c-9.5-4.5-14.1-10.3-5.1-46.5
	C736.2,325.1,746.6,339.6,739.5,352.6z"/>
<path fill="#FFFFFF" d="M1248.6,176.2c-2.2-2.2-9.4-5.7-22.3-5.7c-17.6,0-29.2,8.6-29.2,26.8c0,5,0.4,9.6,1,14.2
	c-9,21.2-24.8,36.1-33.7,36.1c-2.9,0-4.3-1.6-4.3-4.6c0-10.1,12.4-38.3,12.4-50.3c0-12.1-9.7-17.9-21.2-17.9c-8.3,0-16.9,2.9-21.4,4
	c0.5-16.1-2.4-21.7-8.5-21.7c-8.1,0-16.3,14-16.3,23.1c0,7.8,4.8,11,14.5,10.5c-0.6,4.3-1.9,9.9-4,15.3l-1.1,2.9l0,0
	c-7.2,18.3-31.6,29.8-53,29.8c-15.2,0-22.3-4.8-23.1-15.3c30.8-2.1,53.9-13.6,53.9-31.8c0-11.2-10.5-17.9-26-17.9
	c-31.4,0-57.3,27.3-57.3,52.7c0,2.3,0.2,4.5,0.6,6.5c-4.7,3.3-9.5,5-13.7,5c-4.1,0-6.4-1.9-6.4-6.4c0-1.9,0.3-4.3,1.1-7.2l24.7-95.3
	c0.3-1.4,0.5-2.7,0.5-3.8c0-4.8-3.4-7-11.3-7c-10.5,0-16.3,2.1-18.4,11l-11,46.9c-1.8-0.2-3.7-0.2-5.7-0.2
	c-42.5,0-61.8,28.2-61.8,53.1c0,2.4,0.2,4.7,0.7,6.8C901,244.6,893,251,887.4,251c-2.9,0-4.3-1.6-4.3-4.6
	c0-19.6,16.6-56.5,16.6-66.2c0-5.7-6.1-6.9-12-6.9c-14.7,0-17.9,4.5-20.4,13.9l-1,3.5c-5.7,20.9-9.6,33.8-12.1,42.7
	c-7.5,8.9-15.5,14.3-20.6,14.3c-2.9,0-4.8-1.3-4.8-4.6c0-8.1,12.1-48.4,14.2-58.1l0.5-2.2c1-4.6-0.5-9.6-10.5-9.6
	c-13.6,0-16.6,1.9-19.8,12.9l-1.8,6.1c-10.2,35.3-19.2,46.3-28.4,46.3c-4,0-6.7-2.2-6.7-7.3c0-5.1,3.2-16.6,8.5-33.2l1.4-4.5
	c1-3.2,3.5-9.4,3.5-13.6c0-4.5-4.6-6.5-11.8-6.5c-11.3,0-17.2,2.6-20.1,15.2l-0.5,2.1c-7,30.2-11.2,35.3-11.2,46.3
	c0,12.3,10.2,18.2,22.5,18.2c17.2,0,32.7-10.5,42.1-37.7l1.3,0.5c-4.1,12.6-8.1,23.1-8.1,31.6c0,9.1,6.5,14.7,17.7,14.7
	c10.3,0,20.3-5,29.1-12.8c0,0.4,0,0.8,0,1.1c0,9.4,7.7,15,20.1,15c17.5,0,31.6-9.5,42.1-21.6c4,5,10.3,7.9,18.5,7.9
	c18,0,30.2-11.7,38.5-36.4l1.3,0.3c-4.6,13.2-5.7,17.7-5.7,22.5c0,9.1,5.4,13.6,17.7,13.6c11.5,0,22-4.5,30.7-11.4
	c6.4,8.5,19,12.2,35.4,12.2c38.1,0,66.1-22,72.9-42.8l0,0l0.9-2.7c2.6-7.3,4.3-13.2,5.3-18.7c1.8-0.2,3.8-0.3,6.4-0.3
	c5.4,0,7.5,1.8,7.5,6.5c0,12-12.4,39.3-12.4,51.4c0,11,8.5,15.3,19.5,15.3c22.6,0,40.7-17.2,51.2-37c1.3,7.6,2.6,15.3,2.6,23.8
	c0,12.3-6.7,14.8-14.2,14.8c-4.8,0-9.7-0.8-13.2-1.8c-1.1,2.4-1.9,4.6-1.9,6.4c0,5.7,6.1,8.9,20.9,8.9c25.2,0,39.3-12.8,39.3-31
	c0-18.7-13.1-42.3-13.1-57.1c0-7,3.4-9.3,7-9.3c6.5,0,10.2,8,14.8,8c1.6,0,3-0.5,4.5-2.6c2.1-3,2.9-5.3,2.9-7
	C1250,178.3,1249.5,177.2,1248.6,176.2z M1060.1,187.1c3,0,5.1,1.8,5.1,5.7c0,8.5-8.9,19.6-26,20.9
	C1041.9,199.1,1051.8,187.1,1060.1,187.1z M972.2,188.1c-7.7,32.1-19.6,49.2-27.9,49.2c-4.3,0-8.1-3.2-8.1-14.5
	c0-16.1,11-36.1,34-36.1h2.4L972.2,188.1z"/>
</svg>
